<?xml version="1.0" encoding="utf-8"?>
<!-- Generator: Adobe Illustrator 16.0.0, SVG Export Plug-In . SVG Version: 6.00 Build 0)  -->
<!DOCTYPE svg PUBLIC "-//W3C//DTD SVG 1.1//EN" "http://www.w3.org/Graphics/SVG/1.1/DTD/svg11.dtd">
<svg version="1.1" id="Слой_1" xmlns="http://www.w3.org/2000/svg" xmlns:xlink="http://www.w3.org/1999/xlink" x="0px" y="0px"
	 width="296.346px" height="159.1px" viewBox="0 0 296.346 159.1" enable-background="new 0 0 296.346 159.1" xml:space="preserve">
<g>
	<g>
		<path fill="#0070BA" d="M102.018,48.889h18.458v6h-8.782V97.28h-9.677V48.889z"/>
		<path fill="#0070BA" d="M130.928,79.098l1.658-24.211h0.555l1.657,24.211H130.928z M120.212,97.28h9.471l0.896-12.859h4.566
			l0.899,12.859h9.471l-5.048-48.391h-15.207L120.212,97.28z"/>
		<path fill="#0070BA" d="M158.239,80.341v9.109c0,1.247,0.965,1.593,1.52,1.593c0.9,0,1.52-0.762,1.52-1.593V78.198
			c0-1.521-0.277-3.178-3.871-3.178h-3.94v-5.323h4.074c2.771,0,3.736-0.623,3.736-3.596v-9.622c0-0.829-0.62-1.591-1.52-1.591
			c-0.554,0-1.52,0.346-1.52,1.591v7.892h-9.68v-6.842c0-3.39,0.415-8.64,7.19-8.64h8.022c6.783,0,7.191,5.25,7.191,8.64v7.743
			c0,5.251-3.663,6.706-6.568,6.565v0.485c6.499-0.137,6.568,4.838,6.568,6.568v9.747c0,3.386-0.409,8.642-7.191,8.642h-8.022
			c-6.775,0-7.19-5.256-7.19-8.642v-8.296H158.239z"/>
		<path fill="#0070BA" d="M176.05,48.889h22.4V97.28h-9.673V54.889h-3.047V97.28h-9.68V48.889z"/>
		<path fill="#0070BA" d="M213.787,75.502V54.889h1.246c1.035,0,1.801,0.898,1.801,2.417v15.778c0,1.521-0.766,2.419-1.801,2.419
			H213.787z M204.11,97.28h9.677V80.826h5.532c6.772,0,7.188-5.255,7.188-8.64V57.529c0-3.39-0.415-8.64-7.188-8.64H204.11V97.28z"
			/>
		<path fill="#0070BA" d="M243.933,89.451c0,0.831-0.62,1.593-1.521,1.593c-0.554,0-1.523-0.347-1.523-1.593V56.479
			c0-1.245,0.97-1.591,1.523-1.591c0.9,0,1.521,0.762,1.521,1.591V89.451z M231.209,88.638c0,3.386,0.419,8.642,7.194,8.642h8.018
			c6.772,0,7.188-5.256,7.188-8.642V57.529c0-3.39-0.415-8.64-7.188-8.64h-8.018c-6.775,0-7.194,5.25-7.194,8.64V88.638z"/>
		<path fill="#0070BA" d="M283.761,48.889h12.585V97.28h-9.68V66.933h-0.351l-4.972,30.347h-7.748l-4.976-30.347h-0.345V97.28
			h-9.682V48.889h12.581l6.292,34.009L283.761,48.889z"/>
	</g>
	<g>
		<path fill="#0070BA" d="M88.272,28.66C84.917,13.934,76.487,1.96,75.325,0c-1.844,2.75-8.57,13.316-11.987,25.057
			c-3.728,13.086-4.273,24.688-2.99,36.127c1.281,11.42,6.112,23.164,6.112,23.164c2.566,6.159,6.413,12.756,8.915,15.993
			c3.672-4.775,12.112-18.993,14.735-37.573C91.573,52.443,91.639,43.397,88.272,28.66 M75.325,96.674
			c-1.656-3.112-4.228-9.039-4.468-18.19c-0.066-8.861,3.48-16.463,4.517-18.038c0.92,1.575,3.983,8.196,4.343,17.237
			C79.964,86.535,77.032,93.497,75.325,96.674 M87.298,53.662c-0.123,5.62-0.791,11.557-1.651,15.093
			c0.308-6.107-0.424-14.721-1.832-21.453c-1.405-6.733-5.385-17.954-8.554-23.171c-2.932,4.957-6.542,14.679-8.439,23.109
			c-1.903,8.445-1.958,18.644-1.958,21.711c-0.499-2.59-1.765-11.78-1.406-21.034c0.3-7.634,2.084-15.466,3.062-19.074
			c3.73-12.053,7.951-19.745,8.742-20.957c0.791,1.212,6.108,10.695,8.864,20.653C86.866,38.507,87.42,48.038,87.298,53.662z"/>
		<path fill="#0070BA" d="M81.032,103.774H55.447v17.167c0.025-0.029,0.042-0.051,0.068-0.073c6.028-6.028,15.795-6.028,21.824,0
			c6.026,6.028,6.026,15.804,0,21.823c-0.021,0.026-0.049,0.052-0.073,0.074c0,0.007,0,0.007-0.007,0.007
			c-0.02,0.022-0.058,0.059-0.087,0.08c-6.006,5.97-13.866,8.959-21.724,8.959c-7.885,0-15.779-3.01-21.8-9.025
			c-10.604-10.608-11.865-27.028-3.775-39.012c1.091-1.625,2.345-3.164,3.775-4.584c6.021-6.025,13.915-9.032,21.8-9.032V48.889
			c-30.313,0-54.899,24.585-54.899,54.885c0,30.316,24.587,54.896,54.899,54.896c15.82,0,30.056-6.688,40.067-17.378v-37.519H81.032
			"/>
	</g>
	<rect x="102.018" y="103.781" fill="#0070BA" width="194.328" height="30.243"/>
	<g>
		<path fill="#0070BA" d="M104.004,140.527v4.589c0,2.468,0.706,3.124,3.328,3.124c0.78,0,2.016-0.022,2.998-0.202v-7.511h2.017
			v18.144h-2.017v-8.842c-1.034,0.175-2.469,0.226-3.403,0.226c-3.149,0-4.938-1.108-4.938-4.712v-4.815H104.004z"/>
		<path fill="#0070BA" d="M138.523,140.527v1.815h-7.081v5.897h6.626v1.814h-6.626v6.805h7.105v1.812h-9.121v-18.144H138.523z"/>
		<path fill="#0070BA" d="M156.938,158.67h-2.017v-18.144h5.038c3.303,0,5.471,1.538,5.471,5.117c0,4.234-2.573,5.343-5.846,5.343
			h-2.646V158.67z M156.938,149.172h1.96c2.777,0,4.439-0.431,4.439-3.528c0-2.569-1.436-3.302-3.856-3.302h-2.544V149.172z"/>
		<path fill="#0070BA" d="M181.652,149.849l6.601-9.322h2.521l-5.798,7.589l5.974,10.555h-2.344l-4.837-8.97l-2.118,2.646v6.324
			h-2.015v-18.144h2.015V149.849z"/>
		<path fill="#0070BA" d="M215.613,140.527v1.815h-7.082v5.897h6.626v1.814h-6.626v6.805h7.107v1.812h-9.122v-18.144H215.613z"/>
		<path fill="#0070BA" d="M239.573,145.972c0-2.194-0.732-3.98-3.251-3.98c-3.503,0-3.528,4.936-3.528,7.333
			c0,3.678,0.2,7.96,3.528,7.96c2.62,0,3.051-2.165,3.251-5.164h2.015c-0.225,4.181-1.261,6.979-5.116,6.979
			c-5.344,0-5.77-5.445-5.77-9.724c0-4.086,0.754-9.199,5.719-9.199c3.426,0,5.167,2.544,5.167,5.795H239.573z"/>
		<path fill="#0070BA" d="M266.431,145.972c0-2.194-0.732-3.98-3.252-3.98c-3.506,0-3.526,4.936-3.526,7.333
			c0,3.678,0.196,7.96,3.526,7.96c2.618,0,3.048-2.165,3.252-5.164h2.012c-0.227,4.181-1.261,6.979-5.117,6.979
			c-5.339,0-5.766-5.445-5.766-9.724c0-4.086,0.751-9.199,5.718-9.199c3.426,0,5.165,2.544,5.165,5.795H266.431z"/>
		<path fill="#0070BA" d="M286.936,149.849l6.604-9.322h2.516l-5.796,7.589l5.974,10.555h-2.343l-4.841-8.97l-2.113,2.646v6.324
			h-2.02v-18.144h2.02V149.849z"/>
	</g>
	<g>
		<path fill="#FFFFFF" d="M114.135,109.861l1.414,7.34c0.303,1.491,0.454,4.013,0.654,5.729h0.051
			c0.202-1.641,0.405-4.439,0.656-5.729l1.414-7.34h6.081v18.117h-4.164v-6.36c0-1.742,0.128-6.385,0.228-7.898h-0.026l-2.7,14.258
			h-3.029l-2.699-14.258h-0.025c0.074,1.262,0.228,5.427,0.228,7.873v6.385h-4.164v-18.117H114.135z"/>
		<path fill="#FFFFFF" d="M128.298,109.861h10.145v3.433h-5.78v3.558h5.173v3.429h-5.173v4.265h5.78v3.433h-10.145V109.861z"/>
		<path fill="#FFFFFF" d="M152.779,109.861v7.216l3.051-7.216h4.745l-4.009,7.997l4.009,10.121h-4.592l-2.018-6.309l-1.186,2.092
			v4.217h-4.165v-4.217l-1.186-2.092l-2.018,6.309h-4.594l4.013-10.121l-4.013-7.997h4.746l3.052,7.216v-7.216H152.779z"/>
		<path fill="#FFFFFF" d="M167.952,127.978h-4.367v-18.117h6.334c2.522,0,5.3,0.907,5.3,5.525c0,4.469-2.727,5.525-5.3,5.525h-1.968
			V127.978z M167.952,117.656h0.783c1.083,0,2.118-0.528,2.118-2.321c0-1.793-0.934-2.22-2.195-2.22h-0.707V117.656z"/>
		<path fill="#FFFFFF" d="M178.908,109.861h10.147v3.433h-5.781v3.558h5.176v3.429h-5.176v4.265h5.781v3.433h-10.147V109.861z"/>
		<path fill="#FFFFFF" d="M202.459,109.861v3.433h-5.779v14.684h-4.367v-18.117H202.459z"/>
		<path fill="#FFFFFF" d="M209.88,109.861v4.49c0,1.994-0.554,4.895-0.656,6.888h0.025l3.685-11.378h4.162v18.117h-4.162v-4.217
			c0-1.938,0.605-4.891,0.811-6.812h-0.03l-3.758,11.028h-4.238v-18.117H209.88z"/>
		<path fill="#FFFFFF" d="M232.546,114.577v8.127c0,3.608-1.789,5.7-5.878,5.7c-4.039,0-5.883-2.092-5.883-5.7v-8.15
			c0-2.854,1.793-5.102,5.904-5.102C230.808,109.453,232.546,111.752,232.546,114.577z M225.151,114.278v9.185
			c0,1.083,0.758,1.611,1.517,1.611c0.729,0,1.512-0.528,1.512-1.611v-9.185c0-1.035-0.783-1.494-1.512-1.494
			C225.909,112.784,225.151,113.243,225.151,114.278z"/>
		<path fill="#FFFFFF" d="M240.626,116.852h2.851v-6.991h4.366v18.117h-4.366v-7.697h-2.851v7.697h-4.366v-18.117h4.366V116.852z"/>
		<path fill="#FFFFFF" d="M261.879,109.861v3.433h-5.777v14.684h-4.367v-18.117H261.879z"/>
		<path fill="#FFFFFF" d="M273.162,109.861l4.014,18.117h-4.29l-0.656-3.633h-3.331l-0.559,3.633h-4.336l3.936-18.117H273.162z
			 M271.649,121.09l-1.162-7.975h-0.026l-1.137,7.975H271.649z"/>
		<path fill="#FFFFFF" d="M279.427,115.386c0-3.762,2.349-5.934,5.475-5.934c3.455,0,5.402,2.249,5.402,4.796
			c0,2.245-0.732,3.382-2.573,4.191h0.047c1.841,0.682,3.152,1.436,3.152,4.694c0,3.579-2.318,5.27-5.772,5.27
			c-2.705,0-5.73-1.184-5.73-5.853h4.01c0,2.019,0.584,2.602,1.541,2.602c1.134,0,1.59-0.583,1.59-2.602
			c0-1.691-0.528-2.37-1.922-2.37h-0.625v-3.258h1.034c0.627,0,1.312-0.707,1.312-1.994c0-1.359-0.429-2.219-1.465-2.219
			c-1.107,0-1.465,0.809-1.465,2.675H279.427z"/>
	</g>
</g>
</svg>
